<svg width="25" height="24" viewBox="0 0 25 24" fill="none" xmlns="http://www.w3.org/2000/svg">
<path d="M20.3963 14.1629L18.8503 13.2702C19.0063 12.4282 19.0063 11.5645 18.8503 10.7226L20.3963 9.82985C20.5741 9.72823 20.6539 9.51775 20.5959 9.32178C20.193 8.02985 19.5071 6.86131 18.6108 5.88873C18.4729 5.73994 18.2479 5.70365 18.0737 5.80527L16.5277 6.698C15.8781 6.13914 15.1306 5.70728 14.3213 5.42422V3.64237C14.3213 3.43915 14.1797 3.26132 13.9802 3.21778C12.6483 2.9202 11.2838 2.93471 10.0173 3.21778C9.81767 3.26132 9.67614 3.43915 9.67614 3.64237V5.42785C8.87049 5.71454 8.12292 6.14639 7.46969 6.70163L5.92736 5.80889C5.74954 5.70728 5.52817 5.73994 5.39026 5.89236C4.4939 6.86131 3.80801 8.02985 3.40519 9.32541C3.3435 9.52138 3.42697 9.73186 3.60479 9.83348L5.15075 10.7262C4.9947 11.5681 4.9947 12.4319 5.15075 13.2738L3.60479 14.1665C3.42697 14.2681 3.34713 14.4786 3.40519 14.6746C3.80801 15.9665 4.4939 17.1351 5.39026 18.1076C5.52817 18.2564 5.75317 18.2927 5.92736 18.1911L7.47332 17.2984C8.12292 17.8572 8.87049 18.2891 9.67977 18.5722V20.3576C9.67977 20.5609 9.8213 20.7387 10.0209 20.7822C11.3527 21.0798 12.7173 21.0653 13.9838 20.7822C14.1834 20.7387 14.3249 20.5609 14.3249 20.3576V18.5722C15.1306 18.2855 15.8781 17.8536 16.5314 17.2984L18.0773 18.1911C18.2551 18.2927 18.4765 18.2601 18.6144 18.1076C19.5108 17.1387 20.1967 15.9701 20.5995 14.6746C20.6539 14.475 20.5741 14.2645 20.3963 14.1629ZM11.9987 14.8996C10.3983 14.8996 9.09549 13.5968 9.09549 11.9964C9.09549 10.396 10.3983 9.09316 11.9987 9.09316C13.5991 9.09316 14.9019 10.396 14.9019 11.9964C14.9019 13.5968 13.5991 14.8996 11.9987 14.8996Z" fill="#6C7878"/>
</svg>
