<svg width="24" height="24" viewBox="0 0 24 24" fill="none" xmlns="http://www.w3.org/2000/svg">
<path d="M20.8796 9.50154L18.641 5.69083C18.3935 5.26898 17.8451 5.12555 17.4176 5.36741L15.4771 6.46703L17.1561 9.32717C17.2179 9.43404 17.1814 9.56622 17.0745 9.62809L16.6864 9.84745C16.5795 9.90932 16.4417 9.87276 16.3798 9.76589L14.7009 6.90857L13.1485 7.78883L13.9331 9.12187C13.995 9.22874 13.9584 9.36092 13.8516 9.42279L13.4635 9.64215C13.3566 9.70402 13.2188 9.66746 13.1569 9.5606L12.3723 8.23036L10.8199 9.11062L12.5016 11.9708C12.5635 12.0748 12.527 12.2098 12.4201 12.2717L12.032 12.491C11.9251 12.5529 11.7873 12.5164 11.7254 12.4095L10.0465 9.54935L8.49407 10.4296L9.27871 11.7627C9.34058 11.8695 9.30402 12.0017 9.19716 12.0636L8.80905 12.2829C8.70219 12.3448 8.56438 12.3082 8.50251 12.2014L7.71787 10.8655L6.16546 11.7458L7.84443 14.6059C7.9063 14.71 7.86974 14.845 7.76287 14.9068L7.37477 15.1262C7.2679 15.1881 7.13009 15.1515 7.06822 15.0446L5.38926 12.1929L3.44875 13.2926C3.02128 13.5372 2.87222 14.0744 3.11971 14.4962L5.35832 18.3098C5.60581 18.7316 6.15421 18.875 6.58169 18.6332L20.5533 10.7052C20.9808 10.4634 21.1271 9.92339 20.8796 9.50154Z" fill="#6C7878"/>
</svg>
