<svg xmlns="http://www.w3.org/2000/svg" width="11.235" height="11.425" viewBox="0 0 11.235 11.425">
  <path id="Refresh" d="M358.484,27.068v.048l-.126.493-.159.444-.206.446-.239.413-.254.4-.287.365-.332.349-.351.318-.382.3-.4.238-.413.223-.429.159-.446.143-.46.1-.477.049-.493.031-.27-.016-.27-.015-.27-.033-.254-.031-.254-.064-.256-.08-.254-.079-.254-.1-.239-.111-.238-.111-.223-.128-.223-.143-.238-.159-.206-.159-.206-.175-.192-.174-.953.953-.079.062-.064.049-.1.015-.1.016-.079-.016-.1-.015-.08-.049-.064-.062-.064-.064-.048-.1-.031-.1V27.195l.031-.079.048-.08.064-.079.064-.064.08-.031.1-.033h3.448l.1.033.064.031.079.064.064.079.048.08.033.079.016.1-.016.111-.033.079-.048.08-.064.079-1,1.017.27.223.287.206.318.175.3.143.334.128.349.062.351.064.334.016.254-.016.237-.016.239-.048.223-.031.221-.08.223-.079.223-.1.223-.111.206-.144.19-.126.192-.159.175-.143.159-.175.159-.192.143-.19.143-.206.016-.033.031-.062.033-.08.047-.1.047-.128.064-.143.064-.159.062-.175.048-.079.049-.048.062-.033h1.479l.1.016.031.016.048.031.047.08Zm.192-5.944v3.417l-.033.08-.048.079-.062.08-.064.064-.08.048-.1.031h-3.448l-.095-.031-.08-.048-.064-.064-.064-.08-.047-.079-.031-.08v-.19l.031-.1.047-.08.064-.064,1-1.032-.269-.239-.287-.206-.3-.159-.318-.159-.318-.1-.351-.1-.349-.048-.365-.016-.239.016-.239.015-.238.048-.223.048-.223.064-.221.08-.239.111-.206.1-.192.143-.206.128-.19.159-.175.159-.159.175-.159.174-.126.192-.144.206-.031.031-.033.064-.031.1-.031.08-.064.126-.064.144-.064.159-.064.174-.047.08-.047.048-.064.048h-1.525l-.1-.016-.033-.015-.048-.048-.048-.08v-.128l.128-.491.159-.462.206-.444.223-.413.27-.382.3-.382.318-.351.351-.3.4-.3.382-.239.429-.238.429-.159.444-.144.462-.1.477-.048.493-.031.269.015.27.016.256.033.27.048.269.062.256.064.254.08.254.111.239.1.238.126.239.128.221.143.223.144.223.174.206.159.192.175.953-.953.064-.064.1-.048.079-.031h.175l.1.031.08.048.064.064.062.08.048.079.033.1Z" transform="translate(-347.441 -20.156)" fill="#77878a" fill-rule="evenodd"/>
</svg>
