<svg xmlns="http://www.w3.org/2000/svg" width="32" height="32" viewBox="0 0 32 32">
  <g id="Save" transform="translate(2486 -2051)">
    <rect id="Icon_Base" width="32" height="32" transform="translate(-2486 2051)" fill="none"/>
    <path id="save-2" data-name="save" d="M279.164,76.363H292.29V69.706H279.164Zm15.357,0h2.158V60.524l-.077-.184-.073-.188-.077-.222-.111-.149-.073-.111-.111-.111-4.8-4.871-.073-.111-.149-.073-.184-.115-.149-.073-.222-.111-.188-.038-.111-.034h-.15v7.247l-.034.3-.115.333-.146.3-.188.222-.261.222-.3.188-.261.034-.372.038h-9.853l-.337-.038-.3-.034-.3-.188-.222-.222-.222-.222-.149-.3-.073-.333-.038-.3V54.131h-2.192V76.363h2.192V69.151l.038-.333.073-.3.149-.3.222-.222.222-.222.3-.188.3-.073.337-.038h14.238l.337.038.3.073.3.188.261.222.184.222.149.3.111.3.038.333Zm-6.58-16.1V54.687l-.038-.073-.038-.111-.111-.226-.146-.111-.226-.034h-3.307l-.188.034-.184.111-.111.226-.038.184v5.576l.038.188.111.184.184.149.188.038h3.307l.226-.038.146-.149.111-.184.038-.077Zm10.93.56V76.957l-.038.337-.073.333-.149.261-.184.261-.261.184-.261.149-.333.111-.3.038H274.258l-.372-.038-.261-.111-.337-.149-.222-.184-.222-.261-.149-.261-.073-.333-.038-.337V53.571l.038-.333.073-.3.149-.3.222-.257.222-.226.337-.111.261-.111.372-.038h15.874l.337.038.372.077.372.111.406.111.41.184.333.222.3.188.261.261,4.794,4.871.226.261.222.3.222.372.184.372.115.448.111.372.073.372Z" transform="translate(-2755.86 2000.513)" fill="#AFB2B6" fill-rule="evenodd"/>
  </g>
</svg>
